# xmcd
#
# Track frame offsets:
#	150
#	13855
#	26297
#	36531
#	47498
#	58421
#	69101
#	82896
#	95534
#	112305
#	123626
#	134062
#	143215
#	152644
#	164291
#	176491
#	190552
#	202564
#	213724
#	225826
#
# Disc length: 3176 seconds
#
# Revision: 1
# Processed by: cddbd v1.5.1PL0 Copyright (c) Steve Scherf et al.
# Submitted via: CDex 1.50Beta5
#
DISCID=120c6614
DTITLE=Elvis Presley - ETERNAL OLDIES HIT PARADE 20
DYEAR=1900
DGENRE=
TTITLE0=ROY ORBISON/OH,PRETTY WOMAN
TTITLE1=THE TEMPTATIONS/MY GIRL
TTITLE2=NIEL SEDAKA/THE DIARY
TTITLE3=CONNIE FRANCIS/VACATION
TTITLE4=BRIAN HYLAND/ビキニスタイルのお嬢さん
TTITLE5=CONNIE FRANCIS/PRETTY LITTLE BABY
TTITLE6=ELVIS PRESLEY/CAN'T HELP FALLING IN LOVE
TTITLE7=RAY CHARLES/UNCHAIN MY HEART
TTITLE8=THE RIGHTEOUS BROTHERS/ふられた気持ち
TTITLE9=FATS DOMINO/BLUEBERRY HILL
TTITLE10=NIEL SEDAKA/悲しき慕情
TTITLE11=DEL SHANNON/花咲く街角
TTITLE12=ELVIS PRESLEY/DON'T BE CRUEL
TTITLE13=THE CASCADES/悲しき雨音
TTITLE14=THE TOKENS/THE LION SLEEPS TONIGHT
TTITLE15=HARRY BELAFONTE/バナナ・ボート
TTITLE16=CONNIE FRANCIS/ボーイ・ハント
TTITLE17=NIEL SEDAKA/ONE WAY TICKET
TTITLE18=THE PLATTERS/YOU'LL NEVER KNOW
TTITLE19=ELVIS PRESLEY/LOVE ME TENDER
EXTD=
EXTT0=
EXTT1=
EXTT2=
EXTT3=
EXTT4=
EXTT5=
EXTT6=
EXTT7=
EXTT8=
EXTT9=
EXTT10=
EXTT11=
EXTT12=
EXTT13=
EXTT14=
EXTT15=
EXTT16=
EXTT17=
EXTT18=
EXTT19=
PLAYORDER=
